<mxfile host="app.diagrams.net" modified="2023-07-22T17:26:29.571Z" agent="Mozilla/5.0 (Windows NT 10.0; Win64; x64) AppleWebKit/537.36 (KHTML, like Gecko) Chrome/114.0.0.0 YaBrowser/23.7.0.2526 Yowser/2.5 Safari/537.36" etag="k9tCWcf-KKCYGCXFeM2f" version="21.5.1" type="device">
  <diagram id="C5RBs43oDa-KdzZeNtuy" name="Page-1">
    <mxGraphModel dx="1386" dy="791" grid="1" gridSize="10" guides="1" tooltips="1" connect="1" arrows="1" fold="1" page="1" pageScale="1" pageWidth="827" pageHeight="1169" math="0" shadow="0">
      <root>
        <mxCell id="WIyWlLk6GJQsqaUBKTNV-0" />
        <mxCell id="WIyWlLk6GJQsqaUBKTNV-1" parent="WIyWlLk6GJQsqaUBKTNV-0" />
        <mxCell id="zkfFHV4jXpPFQw0GAbJ--0" value="Global Game Settings" style="swimlane;fontStyle=2;align=center;verticalAlign=top;childLayout=stackLayout;horizontal=1;startSize=26;horizontalStack=0;resizeParent=1;resizeLast=0;collapsible=1;marginBottom=0;rounded=0;shadow=0;strokeWidth=1;" parent="WIyWlLk6GJQsqaUBKTNV-1" vertex="1">
          <mxGeometry y="130" width="210" height="210" as="geometry">
            <mxRectangle x="220" y="120" width="160" height="26" as="alternateBounds" />
          </mxGeometry>
        </mxCell>
        <mxCell id="zkfFHV4jXpPFQw0GAbJ--1" value="EnemyDefendCountToWin(Range)" style="text;align=left;verticalAlign=top;spacingLeft=4;spacingRight=4;overflow=hidden;rotatable=0;points=[[0,0.5],[1,0.5]];portConstraint=eastwest;" parent="zkfFHV4jXpPFQw0GAbJ--0" vertex="1">
          <mxGeometry y="26" width="210" height="26" as="geometry" />
        </mxCell>
        <mxCell id="zkfFHV4jXpPFQw0GAbJ--2" value="EnemySpawnCooldown(Range)" style="text;align=left;verticalAlign=top;spacingLeft=4;spacingRight=4;overflow=hidden;rotatable=0;points=[[0,0.5],[1,0.5]];portConstraint=eastwest;rounded=0;shadow=0;html=0;" parent="zkfFHV4jXpPFQw0GAbJ--0" vertex="1">
          <mxGeometry y="52" width="210" height="26" as="geometry" />
        </mxCell>
        <mxCell id="WAjhvtBQw4Da81u5yRxe-19" value="LeakEnemyCount (Range). В ТЗ не нашел" style="text;strokeColor=none;fillColor=none;align=left;verticalAlign=middle;spacingLeft=4;spacingRight=4;overflow=hidden;points=[[0,0.5],[1,0.5]];portConstraint=eastwest;rotatable=0;whiteSpace=wrap;html=1;" parent="zkfFHV4jXpPFQw0GAbJ--0" vertex="1">
          <mxGeometry y="78" width="210" height="36" as="geometry" />
        </mxCell>
        <mxCell id="zkfFHV4jXpPFQw0GAbJ--3" value="GlobalEnemiesSpeed(Range)" style="text;align=left;verticalAlign=top;spacingLeft=4;spacingRight=4;overflow=hidden;rotatable=0;points=[[0,0.5],[1,0.5]];portConstraint=eastwest;rounded=0;shadow=0;html=0;" parent="zkfFHV4jXpPFQw0GAbJ--0" vertex="1">
          <mxGeometry y="114" width="210" height="26" as="geometry" />
        </mxCell>
        <mxCell id="WAjhvtBQw4Da81u5yRxe-3" value="GlobalEnemyHealth" style="text;strokeColor=none;fillColor=none;align=left;verticalAlign=middle;spacingLeft=4;spacingRight=4;overflow=hidden;points=[[0,0.5],[1,0.5]];portConstraint=eastwest;rotatable=0;whiteSpace=wrap;html=1;" parent="zkfFHV4jXpPFQw0GAbJ--0" vertex="1">
          <mxGeometry y="140" width="210" height="30" as="geometry" />
        </mxCell>
        <mxCell id="WAjhvtBQw4Da81u5yRxe-31" value="GlobalEnemyDamageOnLeak" style="text;strokeColor=none;fillColor=none;align=left;verticalAlign=middle;spacingLeft=4;spacingRight=4;overflow=hidden;points=[[0,0.5],[1,0.5]];portConstraint=eastwest;rotatable=0;whiteSpace=wrap;html=1;" parent="zkfFHV4jXpPFQw0GAbJ--0" vertex="1">
          <mxGeometry y="170" width="210" height="36" as="geometry" />
        </mxCell>
        <mxCell id="WAjhvtBQw4Da81u5yRxe-0" value="" style="shape=image;verticalLabelPosition=bottom;labelBackgroundColor=default;verticalAlign=top;aspect=fixed;imageAspect=0;image=data:image/png,iVBORw0KGgoAAAANSUhEUgAAAaIAAAHPCAYAAAARYd7rAAAAAXNSR0IArs4c6QAAAARnQU1BAACxjwv8YQUAAAAJcEhZcwAADsMAAA7DAcdvqGQAAGYKSURBVHhe7Z0HgBzVma1P5+4JyiihBAqAQCJKgITISCCJbJINttdgrw0bvOuV17te+63jrp+M81tjex1ljCNRZBCIbMCACAYkJJAIymFi5+73n9tdYhhG0mg0M53OJ92pqlu3blVXd/2n/nv/uuXLGxBCCCFKhL84FUIIIUqChEgIIURJkRAJIYQoKRIiIYQQJUVCJIQQoqRIiIQQQpQUCZEQQoiSIiESQghRUiREQgghSoqESAghREmREAkhhCgpEiIhhBAlpVuDnra0tBTnhBBCiF3T2NhYnOs+3RKiRYsWYenSpcUlIYQQ4v0sXrwYCxcuLC51HzXNCSGEKCkSIiGEECVFQiSEEKKkSIiEEEKUFAmREEKIkiIhEkIIUVIkREIIIUqKhEgIIURJkRAJIYQoKRIiIYQQJUVCJIQoO3zFqagNJERCiLIhbAo0yO/DML8fjT4fAsV8Ud1IiIQQZUGDCc/lsTB+OrAOfxhcjx8MjOG4cABBuUdVj4RICFFyaIgujIZwRjiEx1IZfKctgbZcHhdEw5gSCCBiYuR5R/SavPmQpQbzoOpNxDjPdTGb53JdMXFbb3ubIGp/gjZlHrdhHpeZzzKsg8s8JpbhMst4cB3rpXByPctxO27fcZ/MZ2I+y/K4On6GjuVZpy268rGd5QvLhPV5Zbkt8zn16vPofBystxLQayCEECWHRvVf66NoMXP0u3ga63M5HBr0Y34khFeyORwQ8DuBejqdxTV1ETyXyeJZm19g688zAQvZ9n+Mp5wAzQoHMdLEKWv1Nlt9f7FybOa7O5nGm1Yvt386lcVEq/9Nq/t+q/e4UNC2C+D2ZAZHBwN4w/JftX1cZEK4MZ/DbYk0NpkwkjlW7oPmuY0zgXzUtr3B9kvh+EgshAmWF7BjecLyf2/b8HgutvwjrP7XMjlcb2Wfz2RwVSyCMVZwtH2usNXJsstt3+Nt+RIrf1goYPsvlH/RjuPv7ZiPt8+VtkN4Kp3BTVb+bPvsz9o6nhfPiB9l2/F8TLF6mPdT2/4hW5/ao5XvHfQaCCFExRIzf6DeDPgrZlg3mFiQv5oh/k67GWITkmFm0GnseYc/xESG3sLcSBCnW7rXBOYuM8wLTDQoPj+1bSgkD5gB/mZb0gnKUNum0VLE9jOIddm8lzfRjPaZVs9UE6Cobd9oVvEgE6m/M2Gss/lHrJ7NRREK2raTTGweNNH4tRn5A23bqWb8WVfCiixJpHCPrUvbfkbaOjY12qHiO60JtNjnusREYrJtP9zKc9uldtwPmShSVOZZ+lhd2InNd+24Mzb9gH0mijAF7Q4r+1urf4od2yF2rMNNyMZbPSP8hfX0uM61+rfbsd6QyGCrTaOWx/2XOxIiIUTJoRfh8R7DaR4NvSSztzjOPIL5ZmjHmWGmeR9tmRSVg80o06jXW/G0JQoZt9lohniNidkqSxSoY8wrOdHqYCCEtw8a8DNNAGiuabg9uJ+BZh1vMePP7b01Gav3t5aXsPnZ5hkNLAoQm87ofa22shtt/ynbYqDVzfVPmpAuNzF7wqb03AZbHvf/B6tnqYnoLcmU25biR5F92oSTQvekeT4RK8fPSAGeZoJ3kn2GgT7/Tg/nfBOqbw+I4kuNERweKphzr3mu4zktdyREQoiS02KGlelA8xZ4h8++m1EmLgtMEGicHzZDzuamq8zDoMG2LCcum83os4mOTWrfak86gx/3VKPIGvOOaNgPM8H6iG0/oWih+fcME6YDrb5H02mstXIe20yUhpgA7G/HwmZDD87SaK7L5vFKuiBww+xgRlm5pM1TgLi+YFjz7p/Xd0UR4qF5skYxpYdW8JlM5CzxCCg6Xvkcky1zi7dtny+ZSLH0YNsBpz9PJPG11qTto3CsjySzJkgB15RHT69SqJwjFUJULfQ0aGRnmJdxVV0Yl5hg/Ft91PX3BMzI3m1C8rGmdpyzvQ132XyC3ocJBw3YgSYsR5vx/YCJFsWKBtqZeivDKRM9j4/saMOHrQ56KAUpKHhEy6y+l0xUvJ4W/mV/Ej2YM61O1u11+tPD+bgd34l2nBQhHgebzo6142S/1OEmdodammR5jea5tJiKnGLrPmqfh02JO0zgNpmgUFzYd/TJ+gg+YaJBIXnG9veOrTs1HMLfxCJuyvJbLHFfPjuyNttfa74ggPycU024WT8DE3gsk80rarLKf2SivMLOZ/FMlD0SIiFEySmIRQY3J9IYY0b8fBMAysjv42msdAb1XdjkRgN/v5W/zdIYM/xstnsinXFBDAnbjn0626zSjltyH0kz1gyEaHLTPP5o+2Nf0ibLo0C0WiFO6X3QmD9v4nB8KIixRe+CwsBABzYFnmT75Hyd5e9vIsQ+potNcNiERjGaap7WbSZo7K86zkSF9d6QSDkBpRAxn/XsZ9v+wfKXpdK4zvb5ZjZrwhYwrytrnz/lPDU2G86w/Z0dDWOFiSZFi8d4jOUdXNzPDvtM7Ev7jW3zgJ0Xihq9TO6r3FHUnBCi5LBfg6aewsGWM86z0747RpRl6R2w7B6NWS/h3cFzn/R22Dx3o4kamwG5jk2A9FIoEIzM87w07/g+Z97en0042ZTYMZ+wbOfylYKi5oQQFQmbx44wL+ICM96MCLObf/Ncun8nz3L93QjFfXrH9ycToJ+0p5zgEP5l3hLzTN6xPB4X8zoe3+MmQutsXed80lX5akdCJIQoCfSCGHL8wVgIX2+M4e/qGPkVdCHHlQQj9NjUx4g9D0bBMTEAoSvoCbGJThSQEAkh+h1GhbGD/7sDYvhoLOLCn29JpNwzO+yQF7WFhEgI0W/QC+JzMYwU+2JDBNOCfryTy+Jfm+Pu4dO35SXUJBIiIUSfw8Y25wWFgvhSYxQXRUO27HNRcp9vTrgoMFG7SIiEEH0KvSCGKH84FsHnTIQYhsxx264zD+hH8RRWmhfUsX9F1B4SIiFEn0AviKMKHG1e0OcboiZEITdawUPJDL7UknDhznwuRwgJkRCi16EIjQj43QOei+rDmBkKuIdM+ZDoN9sSbkTpXUWUidpDQiSE6FX4WoNxJkKfqY/g7yxxzDgKz9daE27Eag5ZI0RHJERCiF6BxoQRcZeaF8Sw7DmhIFpMdH6dSOE/WgoBCZIg0RUSIiHEPsPXFRwS9OPzjRzEM4zhfj9eMC9oUUsc17Wl3PhwQuwKCZEQosfQgHB0BL7S+6uN9IJCaDfN4eCdnzcRekFh2aIbSIiEED2CEXGHhgL4WmMU19RHsF/RC/q/rQk31hpDtPV4qugOEiIhxF5R8IKAD8XMC2qIYlYo6ASHr73+sonQfRqmR+wlEiIhhHvxGx88Zdj17mC56eYF8aV1V5gQDQ/4sTKbxTdMgP6fe5eOfCCx90iIhKhxKC4nRoKYGQ64VzJ0BQ3FQFvHV3f/u3lBZ9mUJe9PpvEVE6HbbcpRqIXoCRIiIWoYignf8sk3orKPp/NDplxPoeJ7gj7bEME/1UfcM0J8z84PzQNa3JrEqoy8ILFvSIiEqGEoPmeZNzTKps25PNIdvBqK0CC/z3k/9IJOi4ScwXgolcZnW+L4QyLt3sMjxL4iIRKiRmHAwafqQphrHhEfNWWAgRdsTS9oqInQJ+si+Bfzgg4KBrA1l8PXzQP6YksSK+UFiV5EQiREDcLAhPnm4RwVCiLk8+G1TN4NvUMvKGp/5tm6Hw6sw4XFvqAHkmkToAQeMG8oYYIlP0j0JhIiIWoMXvQzzQtaaGIzOuCHaRBWZbLu1dbs/+Fru7/QGHXzm80LWhJP4VttSfwlnUVSCiT6AAmREDUEvRv2B11gns4hocBOA9BsAnNqJIivD4jiODbV2fLT6YyLiKMQ8eFUIfoKCZEQNcRA94K6wmsZODICSSCPy2Ih1x80ORDADlOh38WT+LqJ0GOpLBLSINHHSIgqHJ/Pp6TUrUThOdO8nVnhABps2aPR5g8I+DHApmvM8/mmidCPExm8kyvP35eoPnx5ozi/SxYtWoSlS5cWl0Sp4Vc2cuRIDB48eOeFybzOF2l/5ZGO+crr/TzC/J7m2YWOiTu24bJ0HAe9d5UjZ+U3+f243RfCC5EY2sIRZGyZUXRcZxUWChbZl2PZ17zm5mZs2bIFqVSqmCvKhcWLF2PhwoXFpe4jIaow+HUxHXnkkRg7diz8ZiyE2BMj21pw+to1OKBpO/y7ueQpOllLqUAQbzUOwKrBQ/GmTZvDUcsLFESpxLz99tt49dVX0dLS8j6hEqWlp0IkK1aB6OITe0Mol8MRmzZgTEvTbkWIcH3Qytdl0uZBbcVp69bgkldexBGb1yOaKY+Xe+v3X31IiCoUzzMSYneEclmc+ObrmLZ5IyLZ3b8bKOvzI2leT1Mk4rygZ4ePxo2Tp+LHh8/AE6PGoj3khTeUFglR9SEhqmCq/YLk5/MSmyADZiQ5lSEqnBuei86p47lhv9CBO7bjwKbtiJmH0xHewhSa4fxIBINoDYfx8tBhuGXyIfjVoUfh+kMOx50HTsFrg4Y4cRKiL5EQibJlxIgRGD16NEaNGoXDDjsMxxxzDKZOneqCNGh0a5n6+nqMHz8eBx100M504IEHunyPUW0tOH79OoxubXHPDxGKTzIQRHMk6kTm8dFjcdOkQ/A/R8zEn6YcipeH7Ift0UJ/ULn622oJqD4UrFBheF/XEUccUfXBCueeey7GjRuHUCiExsZGRM1A8vO+9tpruPvuu7Fu3bouPQGSzWaRy+VcfkdPinlcx/PobeudU86TTCazc1vmcXtvWy9523aE9XAd4Tpuwzxvfx3x6vXq4HbcL8t5x0y62pYcfPDBmDdvnoue5LbcpqmpCbfddhteeeUVRFIpnL52NQ7dsgmBvNVt+2HaUN+IZ4ePwpqBg50nVIm888477jMqWKH8UNRcjeB9XbUgRAsWLMDRRx+NVatWYc2aNTj88MMxYcIEbN++3f0eGTlFQzxt2jTnJXlGnIZ5xYoVbpthw4Zh+vTpzrsKmuGl8XrxxRexYcMG513tv//+LgyYdbJMOBzGc88958QuFou5uj0xTCQSWLlypUtTpkzBAQcc4Ork/pja29vddqyP64cMGeK2efrpp53x5PExUWRY56GHHoqhQ4e673Dr1q1uv4wIYx6PjZ/lpZdewubNm98nRp4QpdNprF27Fg0NDRg4cCCWL1+O1XZeZr31BqZu3YSmcBRrBwzCehOgTXX1rp8nX+HGW0JUvvRUiAL/aRTnd8m9997rLj5RPtBoDhgwoKqFqK6uzhl1GmIKDYWXBv+ZZ55xIhSPx10ZGuVDDjnEGX4247E5b/369dixYwdOPvlkzJgxwxl6CgAFguLFOlmOIkWxYpPWmDFjnEBwXyxPEZo9e7Y7lra2NtcUNmnSJLctzz1vBihG9Fr2228/1zzGultbW11d3jHxmRd6O/ToePwUGooIt9+0aZMTPH4GisnGjRvdMR5//PHu81IwuT236wiPmU1xyWTSGWN6jPSI6CU2mYFuDYTwzIjReHbkaLw5YCB2RGNI08uqAsPN8+s9RyQhKi/mzp3rfr97S/VasRqg2i9Cig1vgigoNPAUHUIjz2UadhqkN954w5Wh+NBIebDM8OHDnTfDchQQGi8KDfMoAvRiKEJvvvmmW6bBp2dBYaGocZ98gJICQeHzPA8KBPdJvO+BddEL43G//vrrTry4n5NOOglXXnklrrrqKhx33HFO7FgP8balx0PR4v7oGd111124/fbbXT0Uus7Q0+Ln5XHw89Mzo8dI8aRIbrF6GICwx+YOIcoACZEoW2bNmoVPfvKT7g7roYcewlNPPeUMN5fZrHXCCSc4j4XNaxQQNlN5zXM0zJzv2B/kGX2W7exhdF7P7Tj16vOSt475HtyW++aUXgy9Fa+Ph+WeeOIJ1+RGAaNXRe/Fg9uwaY1iwmY9ejXMowfVlQARHgc/M/dFEaX3xu0I62bzYjXT8dyL6kBCVKF4RrOaoZiw2YrNZxdccAGOOuooRCIR5w3Qs2HT1CmnnOK8AHor7OdhPg04+5LYbEWvgVM2ZdJDokDQu6Hh9sSI27CJjV4Q8+g50dOgl0RviAJCw8990wvquJ+OAQYUEHpggwYNcstcz+nkyZOdt8Pj4L7ZfMZ6uC2hZ8dtPPFkk90555zjgjX4GT1R6wjPC70nHvexxx7rPhvPCwXNEyUhKgUFK1QY3tdVC8EKvLunoLAvh01ZFAkaWQoEPQzm08iTv/71r87QM48G2msm4/lhvw6b2WjQKSIMfqAgsCmLQsa6GcBAQ07PhnWxQ5yeBbfleaZYsHOcdXL/XEeR8ESH3wvFic173Jb5bELksXA9RYf75rZsPqRgTZw40Ykfj5FNh+yA55SiwmAF8sILL7g6O1+mbH7jsfHz8tjYDEiBoxBxvppRsEL5oqi5GsH7umhEaSC7ulsWe4YGjOP1nXjiia7PiH1RjG6jGInyhl7uyy+/LCEqQzTWnBB7AQWdHsSyZcvcTRb7Z+gNCSH6HwlRBaO7wX2DzWDPP/+8C4Jgn9CuggOEEH2LhKhCkQiJWqUbvQmiwpAQCSGEKCkKVqgwvK+LUXOMKOsYrMB1HT2lrpZJb5fpq3pJV2U6LpPeKNOb9RIvr/My2dM2pJzrJV3Vs7dlelovIyYZ2cjQ+s7rRGlR1FyN4H1dfMaEz48wdJd5Xv+GJ0zew5gMDWbqqkzHZV7Q3IaJ814Z71mXzmW8egnrYf1eGS6zDJeZOO/ti8/KEG+bzsfXcd+d6/X23dXxefV6ZTrXS7xtuL7jvjvWy2XScZuO++6qXi53Pj6vHi4T5jFxu871eGW62oZ5XGbaVb0dy3CeqTv1di7DfO8zdS7T1b69bbjcucyezjnnWaZzvczf1fftbcNxBBnlyLB2rhPlg4SoRvC+rquvvhrz5893DzYKUUsw0nHJkiUu6lFCVF4ofLvG4AWoi1AIUQ1IiIQQQpQUCVGFwia6brSqCiFE2SMhEkIIUVIkREIIIUqKhKhCUbCCEKJakBAJIYQoKRKiCkXBCkKIakFCJIQQoqRIiIQQQpQUCVGF0t/BCnn7lyv+47yodfgr0O9A9A4SIrFbaGxSSGKLbyPW+FfitcAr2OB/G+2+NidK1Qg/c9r+xdFm/1rt0yfskxYG8ax1vN9Ds68J231b0GLTtOVIlMS+ICGqUPojWIHGpcm/HbeH/4SvxT6P/6hfhC/EPmvpM/h96Bd4x7fWzHN1GegsMk507wndgm9Fv4yv2Of9WeR7eCH4DNp8rXZGqlN8uwO/642+t3BT6Df4auzf8O91n8bXo59352qzb33f/hb4W1dwTtUiIRK7hJ7P9aGf4UYTorWBt+0+2O59fRls9TeZON2On0d+jFX+l6vGW6AhfTL4KL4V+y/8MvoLPB1agVeDa3BveBmujX4Dvwn/HG/736xaT3B38Nw8ZefmO7HF+GP0j1gVeB0b/VvxSvA1/CL6c/ww+j28EnjBZLzwWo59hqLD10SkUvA1NSHwztvwtbcVV4pqQ0IkuoSewSPBB80YP41W3/sNQMaXw4rgCjwRfATbfFuLuZULvb+VZkhvD99i05Umue8aVN6Ht5g3dE/oTtwfvNM1SdUWeazxv4I7wreaAK2yM/PeG4+MCfOKwArcFroR6/yvu3PZI/juIQpPSwv8Gzcg9PxzqPv5jzHg//wbQo8/YuvSxYKi2pAQVSh9HaywzYztmsBrZoCbiznvJ2ti9EToEaw2w03hqmTY7HZf6B7z8FaaWe3akFJ8nw49hbX+N/bdK+Idvxle3vUjkzEjm4QvHrfUbnnldS4TvgQeCS03MVqzy3OT9+XxcvBlvB5Y7fqQ9sy7n9+JT3s7Qn99EbHf/BIN1/43Gr/0H2j41jcQeuxRJE8+Fcm5ZyE3eHBxW1FtSIhEl2zwv+XEKLsHg7vFtw1brVzGfIhKhp91i3l2bHrcHVutzA7/DjsvPWiOpOFNp53g+LdtQ3DNaoT+8iSidy5F3Q9/gMYv/Cuit94E/44dxQ3KAwZsbLbzk/DtXmDazHPmbyFpwrVLPK+nqck+/2sIP/oQYj//CQb8yz+g/r++jMjddyL4yl/tHGxHPhpD4sKLkDz1DOQHDCxWIKoRCVGF0tfBCmx+yXajiYUl2BTT4+aYMiHhiyPt27OYsg+Ed/y77Rcr9m840aHRTSTgb2lB8NVXEP3jb9Hw1S+a6HwODV//TzR891rEfvtrBFe9isTCc5E490Lkhg4rVlQe8DPz97Cn75jeUtL+vUekKb4dPL7gqpWo+8VP0Pifn0fD1/4T9df9AJEH7jNh3gofzxnPnXn6ucFD0H7l3yIx/xyJUA0gIRJdMjK3PwbnhtgPZPc/kUH5ARicH4wgwsWcyiSWr0M4H8aeGjvDCCFi//wIFDJoOJlobJNmbNvaEHjrTYT//Bhit96Iup9eh4Yv/wcG/OOn0Pi1/4PYbTcjuPo1M7xbXHMUyUyegvYP/w3Sx84yLyDq8sqJCKLu355+C8F8EA35BjtDIfgowvR6Xnm54PFd9/8w4LOfRuNXvoDwA/cjsP4dJ0xOqDpiIpQdPsIE+QJkphzkxIliTlFHhikDfz7njoTf1e6SqBx8dle9+9scY9GiRVi6dGlxSZQS7+u6+uqrMX/+fMRiMbfc2/Ae+HfhJbgnfAeafS3F3PcSsH8npU/CBalLsX9uXDG3Mmn3teLnkevwcHA5krvxjMZlx+KjyU/g8OzRZhB9ztj6m3Yg+Dqb2Z5yhhfs68nZ3X1nI9sZ++7Skw9C4qLLnBiVKxk7HzeHfoc7Q7djm397Mff9DM8Nw4eTV2FmZjYG3HyLCc4y+Labp0MR2bOZKeD3I2/nJVffADQ0IGfeUH7AIJsOQL6xETnLW7FmDe546GGs2bgZKVMc+l+snWc7ZzNcdvOW6Mcxj/NeGc55R8Opu5cozpPO86L7LF68GAsXLiwudR8JUYXhfV3XXHONE6JoH95Bv+5fZWL0azwXfM4u+HcfWjTza0bYj4nZA3FZ6iOYlj3CJCno1lUq/Gyv+l/AbyPX46XAS2Z839tXxM8cNY9pQfpsnJk6B0Pzw12TW+y3SxB+5CE375rjumlw84EAUqechuS8BcjtN7xggBl84i/ez3Oes958idnk22Dn5ld4Ivi4C17o2ExXODcRzEudibPS52F4fiT877yD0CsvIfzYwwi88frenR87F+4zu6LF8u58FM5DzpQlbyJvZ8wtZ22Ssfm0Tc13Qsr2Yb4WeJRJUx7mO0GyPKakLcdtud2mLVZXs6UW24aJeW02bbXUZvnsFaOwEVvlEuHn95Zdnv15d927Uy/VChKiGqE/hYiX0Fr/GtwTugPPBZ5Fs7/JcnKI5WOYnJ2EeWaUD8lORxiRYvnKhqbl6cCjWBq+BasDq80zSro8NsM15hoxJ3OifeaFrtmSxpeweY3NcAwvDq59w4Ue79ETMoOaD/hdHeyQz5oQ5fYfg9zIUcgOG4a83fXnY3XI19m03qb0eoOhgljRSHupnwWKNyZLQzdhhd2YtPhb7ZeQQ8BuSBrzjZidPsH9Hkbm3z03DvMMGXwQfvyxQhAC+4I8UeoCfj6eB0+c2RznmvmSbJ5jyiDV3oZEa6urmw2kxUZS+6YKcO+F5HPrnIa9J7+ANyX0mihm3lHx2wlYAZZJ2zWXsPUUqBYr02xfb1MH8XKiZevbLY9hGhlb5m0My7+RzWG75XvHVu1IiGoE7+vq66Y5D15CbJpp8u3AFmywCzVn3sB+GJQf4voO3mN0qgAa1ybfdhPeJ7HCxLfV14yxufE4NnMCJuQmdf2Z7Tth/1Bw1SuI3HqTTVfBx/6M3XkAtI6emHhlOGVyQmUmNBIt9BnZfD4SQW74CGTHH4DsuHHI7j8WuYGDTKDMEy3W5Twqwmnn1Avwt8CIuLW+1fhr4Hls92/D8NxIHJY9EqNyY+yGhH1su9iXiTND00N/fQmRu25H4PU1hSY7hqp3Eu7coEFo//CVyBx1TOHYeU5YhsnmH334Ifzp93/A22+/bQ6keee2TdSK1VtqsGWmekuN5l022nSQTQfZdCDX23ydzccscRsqBMWHQmTW0B0/xSto65yIFRP/FqbvxW1WXPFu2UI+BewHbUnclsyYp8Wc6kdCVCP0txDVKjS6FKWCR1T41x18ZliDL76A8KMP7/QA2MH+Hsxy0RNKH36ki5DztzbDt3Ur/NsttdmdfsZMo7tFN0+AYuasZPEy5bb+gBk8OzKfiQ/7UcyLogeRGzS40K/CNGiIW84PHGheVX1BsChWTvwscVqsryfwvPBvwTzvZR0mKAzdDq14DsHnnikGLvD5qaI/YseUOXAi4pdejsyh09491iLLli3DkiVLsG7dOivas+Mn3DJo2zPMJmrTiGXQt6dARWyZVxZFi+tixTzzSxGyeX4DbIzmfJjbFrejwLEspyk7RTfE03jUvLikhGi3SIgqDAlR5RB4Yw2it92C0Isr4GsrPqjqXW5mXJOnnI7E2echN3KkZZj1Irbet2OHGee3EVj3hhnsNfC/9WYhwi5ffAaHUWTO2yp4CD4KFeeLHoPDDGE+ZGbTpoTClJ0wAdkDJppHNR65ESNd85/ztuh9BShONuV27KeiWHFbL/UhweefQ+SO2xCkl5SIFzwlI3PgJBOjDyEz9bD3iFFvCZHofSRENYL3dfVPH5HYV2hU/W+uRfixRxB65mn4t2zeGUWWbxyA+IUXIzXnJPNaGopbdI2P4eEMdzaPyQ2B09bmvAgXtbdlE/wb1sO/aaOL4PMEyfWteM2D3mXuCYuVyYfCbr/5QQORs2Ohl7bTwxoxyvVd5YcOLTQPUqRMDN4jUl59Hac9xY7Hb55R6OWXnDcZsHPG408dcTQS513oRNTt15AQlS8SohpBQlS50NBGlj9ggvSUEw0+5Enj337Fx5CePQf5cC88i2W/D4oR6+dAof63zbMyoUI8YYbdvCkKWaulZKLQZMjfk4lAoQmwg0fleUrMs98Ym/7YL5VlUMXwES6UmgLFQAoXWBGx32Go2PznNf0x9VAogi+94MQ7uHoVMoccisQZZyI3arSrT0JUvkiIagTv61LTXIXCO//t2xB+ZLlL/k2bkB03odAEZQa3YxNUr0KxoYfEZj33gCjHd2szkdoC/ztvIbD2jYJw7dhR+I0VyzMyzed+ch3MBMXJBCAfDBbEqK7eCRciEWSH7YfcuPHIjBmH3Oj9zdsaZOUY8WeCYQLlAio88fDmO+Z1wMdjoPdnx0bPLDtylNuPhKh8kRDVCBKi6oHNdKGn/ozwU0+Ykd0fybMWIDtmbJdGud9wxr/ZjYUXsOPzb90MX3Mz0N4OPz0pE1GOA1cIqihGvGVMrDpGv9nx05sy4+KExz2IOtQEasQI5IYMKyyzSXDgABf5l+fDqhSznQEVhWbAXQmUhKh8kRDVCBKi6oSvPGCUG5u+nHdR7tjvkN5KgN4UgypeW+U8F39ri3OenDfFEHaKE3+zLF+c7syjSDGgwkSH3k9u4GBkDjgA2YmTkZ1gUzsX7hkq19RHUSqI04PLl+P63/wGb5gQuTp4OIWjEiVGQlQjeF+X+ohEOVIIqmgHzHvymydF74pNgBz01bdtK/wbN8K/uRhUkaUgFZsMOwZVeM2TJk4uoIIe1GCGopv3ZML0+uYteGzlSry6ownrrYpNVo4jIjD4mwH3DCKkb1a4Ut4/FX2HhKhGkBCJqsB+xxQq/6YNCPDB1LfWIbBxg2sC9KUpZm0uZJ0PCu8MezfB6RhUwWF70nmfe/g0bsvvmLC9lslhjU3XWtpheXHbLGFTChWf5WFgOMXKiRar5KHweESvICGqEbyvS01zoiqh2PCVERSghE1TCTeIbIDe1Pr1CLy5DunXVyO3eRMyKfOkbJOw/QnanNddxCvEC/nguHMcaqfZMilEHGdukynQ6yZoTrBMuLbacsrKUpQKjzAXdM9NOyWxeyRENYKESNQ6DFb49ZIlaH7zTYwMBjA64MNovx/DbFpvgtRggjTUlof4fRhg6sTRDyhMHA3BmyccE47kLZ9jxr1twvRmNo8NJobbTJyY12SJY8Vx2mrTnR6VbVoQLglURyRENYKESNQ6u4ua49LOVBQdjjc3LuDHZBOtqW7qN6EqjFFHcaJHxXkOV9RxO87zaqMnlbEp8yhQq0ywXkpnsdKmr2eyaC2KEsvSnypM4cSKTYC1hISoRvC+LvURiVqlN8K3OcYcB0kdbFN6TkNsOoAelKVhlkaZR8XEdRxfjiJEb4pNgJa1U3iYz+Y/jsbNJr/NlpptmSNyP5bK4oVMxo3cXSv0VIh4HoUQoqZgsxzFg69peMa8m/tSGdyYSOMX7Sl8szWJzzTH8cEdbThrWysutOnft8TxDcv/fSKFx63sy+YJvWbprSw9ojzqTZ3oac0OB7AgEsIHY2FcXR/GIeaF9UwqawsJUYVCz6gbzqwQYh/gFbbDBOtFE6vbkml8qy2JfzSRumpHOz7ZFLeUwKdsek1TO/7J8r9qYvXT9iTutrJ/iqexOsMeJbEnJERCCLGXsO+H0XibcznnVf3VBOdpE6u7TIB+Gk/hiy0JLLV5NtOJPSMhEkIIUVIkRBUKO2k1zpYQohqQEAkhhCgpEqIKRcEKQohqQUIkhBCipEiIhBBClBQJUYWiYAUhRLUgIRJCCFFSJEQVioIVhBDVgoRICCFESZEQCSGEKCkSogpFwQpCiGpBQiSEEKKkSIgqFAUr7At23nju+jMJIXaJhEjUDiYIvngc/qYm+Hfs6Nfka28HcnyvpxCiM3pVeIXhfV1XX321e1V4LBZzy2LP+EwIIg8/iOiddyKwcVP/eSp+P+L2XSXOmIvcwEHFTNFTeuNV4aJv0KvCawwFK+w9eROE5MzjkDlwIgKbtyL02pq+T6tfB4IBZCZMQK6hsXgkotIJWIrZ9VffKYXtktRVufdIiERNkY/VIb5gAVLTD0M+GCzm9h25gQPQdvGlSB1xlFkvmi9RDRweCuDaATHcNrgBdw5pwO2WbrX5q2IRDPNLivYWCVGFomCFnpMdPQZtl12G9JGHIx/qQzGiB3aceWBTpphX1PeiJ/oPvh58STyF69oTeCOTxX3JNL5t8w+mMkjZZdlg3lGdJd56MEVNmzilREXsD38NIUv0oGiEOfXKcN67ZWEZlu9oqG3RlfG8MJbhem7PfXrJ8864nsfDxHnmsU6vnFc/13nriXccTPT+uD330Rei0Rd1ClHe2AWVPmw64vPmIbv//m65L8iMH4vEaaciw32IqmJbLo/HTXTut7TB5leks7g7kUazzV9ZF8aSwXX43sAYTooEcVQ4gP9oiGJWOIhB9lv7dF0U86MhnG3pilgYhwQDuCwadmUOtfmPm1d1rJUN234ui4Xwz/URTA6+a6oHmcd1hZX/2cA6/HxQDOdbmYNs/b/XR/GrQXWWH8MNNmWZ0QE/zrXpD63sry3vg7a/Ibb939o+fm55/2vps7bdFNv+PDuecyzRo6PgXGllZtqN2rHm/X25MYob7DPxGCd2OJbeQkIkahMzCIlTTkX8zLnI7jesmNl75OrrED9rPtJTD7NbSnlDtcICM+TjzPj/vD2FZ1NZJzDHmDc8xLzjgWbgI5Y4HWi/P3oY+1n+B2yb2SY8fzYxe808LQpNvQnBySZi8yNhHBAImHfy7s3SXCt7tInDTYkU7khkTCiCmGoCVm/b3WJi+H9ak3jS6graJgfbsYwJ+HAjy5rXdopte6SV5z7ovf3avLoJVmaG5fFYKEKe5zPU5pmm2r5Wmdf3bauXx32kfR56SL2JhKhCUbDCvpOPRE0sFiB5/PHI19cXc3sBu6DTh09H6qgjkRswoJgpaoHhZriXmYG/y4z+nZZSyDtByObzZsADOMm8o1FWxjO8R1kexWFZMoMHLLUXm9tH2W/oBMvnUnOnJviJts3jJjR3WvlfmZB8qSWB59M58OGAd3I5rDTR2GrTrG32pk2fsrIUlANNcBpsSk+Lx0Qvao4dD8UnaWUzls9jpEd3tXltk618wvb9qH2eFqv8CBMk1tNg20Z4IL2IhEjUNLkhQ9H+gQuQPGJ6rwUvZEYMR/vZ5yA9+aA+a/YT5QnFgP0sYRT6aMib5uXcbaJxgBl2NndRAMxJcVBk0jYdaRkDzMgzm0b5wljYicMDqTQ2d3r+LG35/KWy/pClrM1nnGR1wtadFQnhkyYsA2zhdTuO1g6itjGXx6uZvIkfzBtifxGw1vIeNU/uYROfLTa/nx3zx237mSZYqzM51wzZF0/DSYgqFAUr9BImFJkJExE/7zxkJk/ad+EwMUueegrSBx8MRcnVBh2vwrVm7E8Lh5xXcbmJidl5l7fUvKMrm9px6Y425zGleP1a+ZfNe7nevJqDzRO5IBoyj8pEyvJ5bT+ZzmCdbdv5Kn8xk8EME4aPWv2fqY/i641R562wnFfWm6dguX3Zz3qMiUpj8fdteuIKtOVzaLcZihmzNtn+nrf9Pm1pi23nt0zKY6tN2d802o6vLxqaJURC2MWZmnEsEqeejOyI/XouRqznoMlIzjwWuaG93+8kyg8a8E3msbSY0aanwH6Y50wo2MTFvhY2nT2fZqmCoac3s8lUoNmm9HQ22zy9j7sSaYw1Iz/WPCN6Iuy7+bN5Jtut0s3ZPBJOOQo8aPnLzcNiAAO9q3tsnvvYYOXaiu7KdivPgIqbrd4V5skw6GCwHc96K8PmP4rMESZmF0bDWGXrH7BjoMfD7dhEx2q22vzrdoxsmmNz4kwTu+0mXJuLn7U30cgKFYb3dWlkhd7HF29H3a+XoP7W2+DfvqOY231yw4ai+VOfRPLkU1z/k+gbKmFkBd7h80rdo3HdB7q7D54h0xGzHQWB6Qnd3ZdGVqgxFKzQ+/Bh1+SZZyJ15BEmJOzS3QsCfGboWGSmHioREs7g78lo7yvd3QfLMHBhX7yYvv48EiIhOpAZMw5tH/wQUocfjnywm308dkOQmTDOhYNnRuuZISH2FglRhcImum60qoq9haIyaTIS885AdtxYt7wnco31iC88G+mpUxWgIEQPkBAJ0QmGcSdOn4v4vLnIDhtazN0FJlSp6dORPPwIDWoqRA+REAnRBflAEPG5ZyE14xjkY7vu88mMGY3EWWche8AB3fKe9hnzgn3pNHyJhKV4P6YEkC1EfwnR2yhqrsLwvq5rrrnGRc1Fo+oY70uCa19Hw09+gsjjT8CXTBVzC+TDYbR98DK0n38BckP34Dn1EnyxX/TuOxD5sx0PX7bXT+QHNKL9nPOQPuIo5EN7GcjRy+h9ROWLouaE6AMy4w9AfMF8ZDp7PDafnnoQkjNmIDd4cDGz78nbjUf60MPgy+QQXvESIn9Z0ffJ9pMbMgzZ/ceWXIREdSIhqlAUrNADeL56cM5SR89EfP5ZyOw/eqcYZYcPQ/u55yFz8CF2FfXjZWT7z0yaYvs+F5mJ/dMcmJ4wHolZJyA7YmQxR4jeRUIkqhsKTybj+jgC69+Bv621uKL7sAmOg6MmTjqpMIipe2boOPOI+MxQbw//2A1MfFLHHo/EiXOQHTqkT8WInz1x+mlIH2KCq4hA0UdIiER1QgHKZuFvbkbkoQdR/83/QuzXv4T/nXd65BXlYzHEzzkHyeNnIjVtqhOl7MhRxbX9Tz4UQvvFlzlPjW+B7RPM00uceAKSs2YjP2BgMVOI3kdCVKFoZIXdYB6Qv2kHws89g7r/9x3EfvETBFe/hvSRRyE7bnyPPYjs/mPQdsllaP6nf0F6+hEl9xAojom58woP35rn0tuw+TE5+wT3uYXoSyREojooekC+9jZEHl6O+u99y0Touwi9sMKFO2cOm47MlINdZ/++wIddMxMn7XM9vUVm/AS0XXqJeWmHId+LwsghjuJuuKMjS9P8KGoKCZGofNgEt2M7wk8+jvprv2Ee0P8i+PJLTpQoUBz7jf05uf2GFzfYB8rNC7Xj4VtgE3PPQHZM7732PG3Clpw9G7lhGkVc9D0Sogql5qPmnAeUgS+ZQPgvT6L+u9ei/offR+ilF1yeW18kt//+yE44APm6umJOlWGeUGLemYhTjIbseyh5vj6KxEknutB1U7ZCphB9iIRIVBZOgMwDampC+OGH0PB/v466636A4KsvA6n3PnBKKD7JuWchO2lyMac6yQdDiJ85H8ljj3V9Rz0lHw6hfT5fnz67eoVblB0SogqlJoMVGIbd3IzwimdR/z/fRf1Pf4QgPSCOMLAL75DNVhl6QzXwIGZuxAi0X3IxkkcdYZ+3Z+/RzBx4AJInzEF2+IhijhB9j4RIlD8MQmhtReShB1D/vW+6SLjgCytMZd7vAXWEnewZE6Je6RuqEDIHTnJh5pmJE/e6vyhfF0Pi1FORmWzeY38+pCtqHv3aRHljIsTIt/offBux63+F4MpXXRMcR8hmc9QuDaYZ4eykKcgyUq6uvphZA9jnTs2YifgZpyM70rya7ooRnxk6ofDMUE7PDIl+RkJUodRKsIIvlwO9IYZMJzi6wbkXuJRkmn+25U/u8hmafDSG5El2dz+BHe61RT4cMa/oXMRPORm5xu69miI7cjiSc+bomSFREiREoqzhCAKpE05E4qLLkPjApe+mBee4EaEZtu0zr6nznX928hTkaFTNc6pFKMSJBQvNOzrK5nf/HBCb5OJnznPvVeL5FqK/kRBVKDU9skIyicg9dyFyx1L4t29DZtx45Aa9G7ZMI5yacVxt393bb8M97HrRJUgdeuhuH3ZNTZ+G5Ow5yA3VM0OiNEiIREXB9/HElt6CyF23w9/chNTxs52H5IbucQV8SE87HJkpB5XN6AelhKODu4ddx3b9sGu+od5FyWXGjivmCNH/SIhE5ZBIILLsXoQfvB/+lmakDz8SibMWmpEdu9PI0hvKTJuOnMKPHe++9nwecp1ee85hfNrOWYjE8cfrmSFRUiREFUrNjayQTCJ6602IWPJv24rUcbMQv/RyZA/oEKZs0+y4cciOn7BPD3VWGwxjj581H8kjODhqsQ/ITll68iTnDfH5IyFKiYRIlD18l1D0vrsRefhB9z6h1DEzkVh4HrJj3vWECMO0U6ecXhAn8R5yw/ZD2xVXIHn8sc4TyjU0IHnKKW7oI6dKQpQQCVGFUjPBCqkkInfehsjSW8wT2obUUTOQuODiggHt9PnTHGH7wEl98kqEaiBjAs0x6dzoCSefiOSsWXpmSJQFEiJRtvjYHHeHidC9d7s+odSs2Uhc1CEwoQMMO2aAAu/8xS4w4U4edzxaP/xhtJ17PjIjRxdXCFFaJESiPGGI9n33IHL/vS46Ln3EUUjMPwdZRnd19gQDAWQnH1QcRUGd7ruDD7smTzjRRdNBzwyJMkFCVKFUdbCCC0z4EyK33lgITJh1QiEwYRejJOSGDEPiHLvDnzylmCN2Sy006YqKQkIkyotkAtH7zRN6aLkLTEgzMIGeEB9OlQEVoiqREFUoVRmskEohdtstiN5CT2gbUjOPQ5wPq3YRmCCEqB4kRKI8YHPcXXe4h1V9DNGedUIhOo4h2kKIqkZCJEqPeULuOaF77nCDmKaOPBqJBWe/7zkhIUR1IiGqUKomWIHNcbf8yY2awAFMUyechMRlVyA74cBiASFEtSMhEqWDzXH334Pww8sLzXFHz0DizAXIjt6/WEAIUQtIiCqUig9WSJsnZF5Q9OY/wr91a2EU7Us+uMsQbSFE9SIhEv0P+4TuvhPh5cvga20rBCaceyGy+yswQYhaREIk+hfzhKJ334HInUtdYEL6mBlILDxX0XFC1DASogqlIoMV0mn3jJAbwJTRcXNOLoyYMH5CsYAQohaREIn+IZVCxI2YUHyVgxeYMEoDbwpR60iIKpSKClagJ3TzHxG98ffwb92C1AknIiFPSAhRREIk+hb2CbmX2nHsuLZCdBxfaqcQbSFEEQmR6DvoCd2xFJHbbi48rDrzOCTOuUCBCUKI9yAhqlDKPliBIrT0FkTuWgp/0w4kTzwF8Us+1OVL7YQQtY2ESPQ+JkIuMGHZvfC3tCB1zEwk581HbuSoYgEhhHgXCVGFUrbBCpkMYjf+AbE//d691M55Qhw7ToEJQohdICESvQc9ofvuRvjR5fC1tyF13Cwk5y+UJySE2C0SItE7sE/oNo4d96fCS+0YHXf+RciOGVcsIIQQXSMhqlDKKlghk0H0ztvMG7rH9Qm55ji+WVXRcUKIbiAhEvsGPaF770Lk3rvhb24qBCacuUDNcUKIbiMhqlDKIliBgQk3/QFRSy4w4aRTEb/scoVoCyH2CgmR6BnFEO3wIw/B195eCEyQJySE6AESIrH3ZNLu9d4xjh1nnlBq9hwkLrwE2bEKTBBC7D0SogqlZMEKDEy4+w6EH7wfvra2QmDCeRdp7DghRI+REInuw+Y491K72+Hf0eTGjkuetQC5UWqOE0L0HAlRhdLvwQr0hPgqh1tudC+1S55yWmHsuLEKTBBC7BsSIrFnXGDCvYVXOXDEhJnHIzn3LORGjCwWEEKIniMhErvH84T+9LtCYMKJJyNx0aUKTBBC9BoSogqlX4IVMsWHVfl6b3pCc0yEzj5fr/cWQvQqEiLRNRwx4a7bEVl6i+sTSh07C4kF50iEhBC9joSoQunTYAWOmHDbzYjefmvhpXannI74JR/U2HFCiD5BQiTeCz2h++8tPCfU2mqe0PFInnEmcsNHFAsIIUTvIiES70JPqENgghs77mLzhBSYIIToQyREFUqvByswMMGNHbccvng7UiechOT8sxWiLYTocyREotAcd8dSRPiwqnup3QlInH2ehu0RQvQLEqIKpUfBCvSgTHR8yaSlBHyJQorecZsbusdFx80+EYmF5yI3dNjO9fucbH/IZosHIYQQ78WX70b7zqJFi7B06dLikigl3td1zTXXYP78+YhGo265O/iScUTuvw/hZ5+BL56gmgGJNvi2bHavcvAFQ8gNH4V8fX1xi94h39iI+LyzkD70MCAUKuYK0TOWLVuGJUuWYN26dX0XOSp6xOLFi7Fw4cLiUveREFUY+yJE9IiCa99Aw4+vQ+SJJ5GLhpFtiCLv8yPQFkegNQ5fppc9F78PiRNPQOtH/gaZSZML4ifEPiAhKl96KkRqmqtQKEjduId4L3bRZsaNQ+K005E6aBKydRETIR8C7Ym+ESEjM3YMEuYNZSccIBESQnSJhKjWyOaAlmbk7F8+GDARSiLQ0t4nIpQPhQqid9hhbl4IIbpCQlSh9ChYgQOY3nsnIvffDX9bK3yRKPyZXJ+IEPx+pA8/DKkZM5AbOKiYKYQQ70dCVCvwVQ733Y3IXXfA39SE1HGz0Pp3n0by+OORj0aKhXqP7H7D0HbOeUgdfIgTJSGE2BWyELUAPaFbb0L05j/Bv30bEqfORfyiy8xbORbxs89GevJk+yX0Yv+NCQ8FLnPwwYqSE0LsEQlRhdLtYAV6Qg/ch8jDD8LvRkw4Eam5ZyK33/DC6mnTTYwWIDN+XO+Ikc+H9EGTkTjpZGQ1KoMQohtIiKoZekIcRfvG3xfGjjvxFMTP+8B7RkzIB0NImDDFTz8d2cGDi7k9J9fYgPbzzkd6+jQgECjmCiHErpEQVSsmQq5PaPn98Le3I3nKGW7Ynq7GjqMYxc+cj+Ss45Gvryvm9gA2yR07A+lDDkE+3Pv9TkKI6kRCVKHsNmquGJjAoXv8O3a4seOS887a7ascciNGoP2CC5A6fDryoWAxd+/IjB+LxBlzkRk3Xs8MCSG6jYSo2mBz3O23uOAE91K70+YhfuEl3RrANDNxEtoXLkDmwAOdd7M35CMRJE49zbyhqUCwZ0ImhKhNJEQVSpfBCvSEHrzf0jL429qQmmWe0Olzkdtvv2KBPeAPIDnn5IIYjdyLF+GZaKUOPwzJmTORG7Tv/UxCiNpCQlQt0BNaap6QC0zYguQppyJ+/kV7/yoHnw/JU09HasYxyNfFipm7Jzt8GNrPvxBpPjOkJjkhxF4iIaoGKELL7kNkOT2hYmDCWef0+PXeuYED0Xb5FUjMmYN8bA+DqgYCSJwwBxk+i6QoOSFED5AQVSg7gxXSaUTvvQuRpTe5h1VTs+cgeeYCF3ywL2RHjUZ8/lmFh113JTC2/9SUSU6wsj0UPSGEkBBVMvSE7rodkTtuhb+5CYkz5iF+wUVORHqD9BFHov38c5GZ0HUUXG7wIMTPOx+ZQw91/URCCNETZD0qFfOEwhwx4f574G9pQWrWiUidOhe5Yd0MTOgG+UAQyRNORPykE5Ed0ikIwbyk5MwZSJsI5aPd60sSQoiukBBVIBy9rf6upYjd9Ef4t3HsuDN6FpjQDfKxOsQv/ACSs2fZ/LuCk5kwFvEzzkBm7LhijhBC9AwJUYUR9vlwbjSMWW3NiOWySJ5yGpLz5nc/RLsH8DUOHLYndfg05INB5OtMnE6fi8xBhyhAQQixz0iIKoiwpYtNhD5aF8bYaBSpOScjcdbCLoft6RI+d5TLAdmsa9rzpVLwJRLwtbUByWRh3S7ITJ6C9nPPQWbKJKSOmIbUMUe76DohhNhXJEQVApvjLoyFcXFdCIP8frScfBri55yP3MhRhQIUGU9ozFN6n9jE211UXXD1KoQffwTRm/+Iuv/9Ieq//y00fGcxog/eD39Lc6GurmCE3Kw5aP3wh9Fy5VVITz5IzwwJIXoFX74b7xJYtGgRli5dWlwS/U3Y7P3ZkRAuNyEaZiJ0dyKNxo98FIeedgZikYi5KyY4RbGhd+OLx+FrbYV/y2YE3nkb/rfeQmDTBhOlJPLwwecJFQkGkT54KhKXfgiZSVMKebuDPxcJkCghy5Ytw5IlS7Bu3Tr7Keq3WE4sXrwYCxcuLC51HwlRmUNP6PJYBBfFQhhgF90f4ik8msrg/GNnYM7gQYhu2ggkTHgyGROjuGti85kn5ASD7O7rNRFKHTMTiQsuRpYDlQpRAUiIypeeCpGa5soYitDCaMhSEA12wd2aSOFPljbncwiZBxTYvAn+reb1bLKpzfuam+Hz+nooQLsToXAYqZnHSYSEECVHQlSmUIQuiYVxZV0YI/1+3GYCdH08jTezObyRsXTsLGz/wpfR+q9fQGrWbGT3G458XX23otj4rqDUUTOQOPdCiZAQouRIiMoQitD50TAuNG+o0efH702ElpgIvd1FVFvmwIlo+9Q/oNVEqf3jn0L6sOnulQy7JBpF+sSTkbjkg8iOn1DMFEKI0iEhKjNCPuAcE6HLYiEMNU/ozmQaNybS2NBJhNi157r3sln4Wprh37gB4YceQOjVl12kXFfQY0oeP9uFfPfWMEBCCLGvSIjKCL5O7jITob+pK0TH/cE8oZ+3J11zXEfYPeszYWKkXPjJJ9Dw/W+j4dr/RmjFs4X+ITbP2fY78fncqAjJk09FgiMw7D+muEIIIUqPhKhM8AITznXNcT7cZl7QTZY25t4bcBC0dfuZyAx95a8Y8L1rUffj/0HwpRfcuuyBE5E4cz4yUw56T19RrrERyTPORJIPv2qUbCFEmSEhKgMoQpfGwriqLoIRJjI3uz6hJN4qekL0gFimzkTojEgQ3x0Yw9kvPYe6V1829cm4gU7jl1yOFgYunHQa8kErnckUPKG6eqROPQPJeQuQ22+4q08IIcoJCVGJocCwT+g884QaTHEYmHBDPIX15glRgNhct5+f48uF8P0BMXy+IYpJQfN2IlFkph6G+BUfQ8sXvoLk3DORN8/H//Zb8O/YzqrdEDyJs88tvJ9o6FCXJ4QQ5YaEqIRw7DgKzIdiIQzz+XFHohCYwOY4jqYw0gTobFt/bWMdFtVHcVgogKRtsyKdwcoF52LHP/4LkmfMKwx4yj6hfB7Bla/Cv2WLG6g0seAcJPlqiEGdXuEghBBlhISoRNDT+UAsjCvqIi46jp7QL80T2pjNYYQJ0Eds3XcG1OEzJkBTQn4kkMeDyQy+2BzHp5vieCwQQjrIWt7Fv2ED/O+8jXwg4EQodfLpyGtgUiFEmSMhKgEM0V5gns4FEQ7bAyw1L4hh2hw94WIToGsHxHClCdTYgB/bzTtaZgL0uZYE/rM14Yb3aWXodrGunVhe6Jmn4G9vReJDVyB1+lzXVCeEEOWOhKifoQ9zSTSMq2IRjDKhud0EiIlNcN8bGMPf1UdwoHk0zSZAt1r+p1va8fmWOB43AYrzuaEiHGOr4zhbvmQC/m1bkTz1DKSOP8G90E4IISoBCVE/sjNE2zyhQXbmV2QyGAgfvtYYxQfNExrk82N9NoffxlP4x+Z2fKstgdWZHN4/nsL7yYfCbtw4J0KRaDFXCCHKHwlRP8HABEbGse9nXKDgyUwLBXGG5fG5oA3mAV1vAvR3TXF8tz2Jl02AUrsZs3TnyAoe5kXl6+tN7Sh3QghROUiI+gFKw3nRsPN6xgT87qHUCJ/xMSFZmcni2+b5fHxHO35kAvROF+PJCSFENSMh6kPo99TZH3pCHDuOwQf0YVpMgFaks/heWxL/1BzHnxJpbDIBKr6qTgghaoqqFCIKQNT+1JvX4aWILff3hx3i9+Ff6iP4B0ujTYTaTICeT2fwny0JfLooQFtzu2l/2w2dgxWEEKJSqUohGhHw4SuNUdw4uB5/KKbP1UdxgIkBTXfH1JGu8jvmdV5HOi935KhQAIeGgnaSfXgoWRCgf25O4MFUxolSzyRICFGudLYVu7MP4l2q1iMyf8H1uVywvRVL2lOYGPRbCmCoeSl8gHSEiRJfOMdndzg8aL1tNNwEbH/LpyfDZ31ito6BBCNZ1lKj5XMdPSzug4OTcpneVldsyOaxllFwiRS+bcfygAlQc8cAg33gfcEKQoiSw9f587EM2hEm9glzjEixe6q6jyhsPwCKBX8HjEDLmuH+RF0E1w2M4X8GxPC/Nv37+ggONoH6SCyC7zTW4UeW970BdTg6GMTx4SC+ap7VYktfaojg7EgI/9oQxZku/NqHq+rC+O/GGKZx7LcueCmTxVfNC/oxgxA6vcpBCFF9cPBijgn5A0s/NFtyw6A6nGR2hBbCkyMaXc/wcurlc+qljvkdyzOPdTF5edVANX2W93GF/Sh+MagenzTx2WEixIg0RrCty2bdQ6JfaU265rqpoYBb97N4Ev9hwrHF5g80D6rRvnW+C+ibbUl8oimOO5JpE7S8C0C4KBp2P7DBJkiBXdzxUHroASXluAhRE/AxDb6+5WNN7a4Z/sVMzrW2HGQ3q8PMVtD+HGg2hw+t01OaYPO0IWS4v+BBcZDjyVbetcxY/iTLYzneVDPg6QizVzPM9kwwG8W+8GqgqoXo9/EUPmU/iG+0JtyXe3go6ETkwVQWr9kP5FXzWCg6HAiHgvQx84q+Yh4P+3YKwQ1df8sH2w9gTjiAJhOZLT0MNthXFKwgRPnBJv2E2YWOzwCyie4TdWHXwnKACcw19RHXmsLnCS+zm+Ujzd7QEM82m3JONITjrNyVln+M2SsK2Kfro/iwLXNYsH9viLgR+GmnOEILX6BZDVS1ECXsx0CPZLV5Na02H7E8vxnvw+zLHWc/Dt59sI+Idx5sXnsyncF/mWg9m84iuxt9mWE/kKdNzDgIKYMOhBCCsDsgYdNUh1Ak3i6yKY0ezbnRoLM/QcvkfSSn480OcWR9ejsxK0ejzPyBNkPxOchufPkM/OE23WY3vl8zG7U8lXFdDZZdFVSlEFEb0pbOty/x2sYYrh0QxRgTmw3m/SRt5bxIEN8cEMM3LKWt/F/NM6J3M8vuRD5jdxrT7EdBsvZjSlt+R6eH5deYsC030XrL6kvZco477GcUrCBEeUFjyqY02hjan86cZnaHLS98ZtC7gaWlucI8G9qpD9iUwVSE4VDzIyHsb8ubrTxvql/N5Ey0Avhn86iONRtFsaoWqlKIdtiX9rtECj+Lp/D7RBr/tzWJf26Ou7uIuK1b0p7G/7Qnca3dWXy7LYn7zbP5oS3/xNIPbJlh1g9ZWXo9HHj0TfshEHpVfF8Qt+GP4nnznH5n+6AwCSFqFxpS9uVwlEf2Cdv/nXCeI6lQhB42m8KH2b0Wl4ylb5k9+cD2Nhfly3eREfZPs9WGo+3/1WwNc5+3G+bVlrabuWmz5WqyOlUpRGyjfc6+7HtMRO62RAFi8xzvKlrti34tm3Xic7/l83XcfNncSvuy77G8ZZbH8m9YPgMY+CPgqxgIvaMXrF72LXEkbP5ouJ+ePpQqhKgOKDKfNE+Fw3ex5YWwRYV2gv1FtEm0ORSWzWYvaHMsC0mbZ/cBW2Q44r4rz+0s8dUwjxTtC23PPPOQhgR87nEQ3iS32/bVIka+fDfadxYtWoSlS5cWlyobhl3zh9G+549dlnhf1zXXXIP58+cjGtVI26K2WLZsGZYsWYJ169aVTcAOI+DY10wh2WHCweG62F/ESDmKUNTmuY5iM8Dy+DoYChCfO6KgsKmO82xuo31y+SZGLE+bxfKsgy/IZP1cT0vA9ewuKBcWL16MhQsXFpe6T1V6RLuDX2KlipAQojyhTWHrCr0Xb8xIPurB5wcZYMApW1a4jlPnFZkZ4tTrL6IwsSxffMnWGNoqejzM22RpndWxKVvwsBit6zwlt2XlU3NCVC0oWEEIUS1IiIQQopdhg2EVBbX1ORIiIYToRdifw9H2+Yyi6B4SogpFIysIUX7wimRwwZV1YRwTLoyYQDhl8q5YPj/E+Y55HZe98oTLncvvbp5lKYbeNpWA91mFEELsAzSm9IRmhAIY4/djaiDgxpRjtBtHceHo/xy5nyMscLy4EVZmSrAwwguFgw+zcoQFRt9xIGaOuMCx61inKx/wuXExOSYdo+YOsTIsO9LS9OJ2TMfY/NxI0E0HVsjNqoSoQlGwghDlxQEmKp+pj7iRDw6z+YtjYXx3QAynhoNu1Jb5Jg77m5jwjc1fbIiauPhxViTkxq1kSDcfiL08Gnbjy51rZU6y8sMt7yqrh6P+T7f8iy3/UNtunNXPeih0R4SCuNzKTLT5i2IhfM7K8q0CX2q0fVv9fJ1NuSMhEkKIfYTP/1xqIpKxe8MvtiZxVyqDa9sS+Es6g6PNMxltQkNjS0+H3s1AW2bDGf9yjLnDLZ8jbnvvOmNi09ocE7DxJjocn8HLZyIdl730eCqLxW1JfM2OgQ/l0yPisEPljoRICCH2kTqTAQYnrC8+/0P4sOmWfN48ksJLNiky9HReN4F40Q3zUyg3yzyafzQP5oPm1Yzm6KYG/7Jpjt4UR295ObPnMRQ48vdxVhc9ss9ammoCRr0r1FjeSIgqFAUrCFE+8CHUrSZCFA++9iFo5p9vgR5lStBkesP19ITYF/SUeUnemHL8y/Err26K479bE1jTQXBOMlHZYOVezGTf806zsNXNNwnQYwqbCWCiJeC+OVI36/tCS+FdSIU9lD8SIiGE2Edo8n9nAsCREj5hns1J4QD+JhZyAQgcX46jItBToki8kM65kRg44CkFhiLlJeZzQFSO4E3P6fZECq9ZeQ4TxFEUqF+XWL1X10Xce9M+Vhd2o3YzeOFtK0/hOjcSwr81RDDO9s3xNStBimpurLlKx/u6rr76ajfWXCzGN5gIUTuU41hzHhxlm/1BHzeheMw8n/uTaSc2Icvf+YoIm3JsuoxJBD0njq3NMuxn4vYsQ6+HUIB4xTPyLsN8m3oeUEfYN0UR49uiB1mi/HBgVY5vx7pZR3+gseaEEKLEUEQ4Ntyb5p1stMTXztBbYj49Hm9sOIqGN/iy57XwHUZ8OwCnHH+OiWPTcXtX3qasg/VznLmOiaN3s24KF0f/pmfEMe0qxSOSEAkhRC9CUeD7zZ5KU0ZEd5AQVSgKVhBCVAsSIiGEECVFQlShaGQFIUS1ICESQghRUiREQgghSoqEqEJRsIIQolqQEAkhRD/A20bdOnaNhKhCUbCCEJUDx4Xje4UmWOKoCuK9SIiEEKIPoZGdFgzgc/URfLkxhsNDfhneTuh8CCFEH0EDO9VE6BN1YTdI6Y58Dk25wrA94l0kRBWKghWEKG94dfKtrZfF+FbVAJ5MZ/GDthT+mtHQP52REAkhRC9DERoV8ONj0bB7y+rb2Tx+E09hpUSoSyREFYqCFYQoXwb4ffhILIwTIkGsyuaKrw3PVsRI2KVAQiSEEL1Io8+HT8QiOMNEaAM9ofYUXjJPSP1Cu0ZCJIQQvQRfWvf39RGcGw25dwv9OJ7EQ+mMey+Q2DUSogpFwQpClBcUoQ/FCn1CbfkcfhNP46lU1r3oTuweCZEQQuwjUROhK0yELjJPKGrLv2pP445kGs3qx+0WEqIKRcEKQpQHQUtnREKYZ2mgz49fxVNYKhHaKyREQgjRQ0KWTgkHcUk0jNF+P/6QSOHOZMa9Llx0HwmREEL0AI4fNy0UwMWxsBtD7qZEGr+Lp7Ehp/i4vUVCVKEoWEGI0sEr73AToWvqI5hq04fTGdyaTEmEeoiESAgh9gIazSF+Hy43T+iwYAAr0ln8uj2FVZmcHljtIRKiCkXBCkL0P/SEJgX9+HJDDLNCQbxq4sPghFc1dM8+ISESQohuQBHiO4U+GovgyFAA63I5fL8tgSdSGWQKRUQPkRAJIcQeoAjt5/fjY7EwZocDYCPcL9tTeDYtT6g3kBBVKApWEKL/GGYidEUshJPCQWzP5fH5lgTuSqblCfUSEiIhhNgNMbvfuyAaxNxIyHlG18dTeNo8IflCvYeEqEJRsIIQfU+dKc/lsQjOi4adCP3CROi+VAZtuvZ6FQmREEJ0AUdNWBAJY2Ek6Lwijh13XzLjmuZE7yIhEkKITnD8uEtjYfxNXRj7Bfy43UToD4k01uuB1T5BQlShKFhBiL6BInSaeUELLA22S+wBE6Eb42m8nZUI9RUSIiGEKMLx4041AfpILIIJAQ7dk3X9QqslQn2KhKhCUbCCEL0LjeHRoQAuiIQwLuDD4+kMftmexOqMRKivkRAJIWoeNnJPDQbw0bowppsYvWIe0K/jabxsIiQZ6nskREKImoYiNCbgxwdjYUwLBrHGROgX7Sk8n8lIhPoJCVGFomAFIXqH/U2E/r4+gpMjQWzN5XC9eUJ/SWeRVst3vyEhEkLUJLyNi9ifv60zEQoH0Z7L4/vtSdydTCOu/td+RUJUoShYQYh9Y6DPh3+ui+KkcAApu5Z+GU/hqVRWzXElQEIkhKg5GkyEPlkfwVnRIPLmGy1uS+L3iRSadXNXEiREQoiaIuQDLo6FXHMcm+d+Z57Q46kMktKgkiEhqlAUrCDE3lNv18xl0bAbxJQDmt6cSOPmZBqbNH5cSZEQCSFqAg7dc4p5QedEQxhqgvSIeUG3cvw4jZpQciREFYqCFYToPm78OBOhD8XC7pmhP3PUhHgaq0yEdBWVHgmREKKq4fhx00IBXGIiNDHoxzoTn98mUng1o1fblQsSIiFE1UIDN9M8oX+ujzgxeiWTwzdaEy5MW5QPEqIKRcEKQhSa3HZlxJg/yTygD0XDmBwMOE/oR20JPJvOqjmuzJAQCSEqEja5sd+HYtMZ5hxs4vOP9VEcEw5gg4nQde1JPJXRA6vliISoQlGwgqhl2BZwgonQLEuD2DpQyHZwfoKJ0+WxMKabGG3M5fAz96xQFildMmWJhEgIUXGETXwOCwUwIuCHv4MQcTrc78eHo2HMMU8obct/iKexPJlBq27cyhYJkRCi4hhtYnNQIIAhJkJsovMY6vfhilgIJ5qnlLHlJe1J3J5Mo0kiVNZIiCoUBSuIWiVgv/uzoiHnEUWcEBU8Io4fd2ksjDMjIURtngJ0dyqD7Ro1oeyREAkhKorx5vUcGvJjgE05blzQEpvq/rYujItNoBot/4Z4Cr9sT+GdrEITKgEJUYWiYAVRq0xKJTAim3XGK2SpztKl0TBONU8oZIJ0r3lCd1jaIk+oYpAQCSEqh0wGkddWIrh1i1ukN/RR84SuqAthmHlCD6Yy+Ll5Q6vNE5IMVQ4SIiFEZZDPI/LYIwi+tgrIFZrc2C80LuB3o2o/n87itkQaG7J5RE2gYpZXV0xhW7b/okyREFUoClYQtYavvQ3BF1fAv2mjEyVCA8aoudZcHhtMnGaGAvjnhgi+2hjD9wbE8NOBdfjloDpcHA1jkHlMojyREAkhKoLAurXwr18PpPl00Hth4AKj5fgQ63k2PSkcxNRgADnTnuvjKecpKXqufJEQCSHKH/N2QiueRWD928WM90JDxkSfJ2lpZTaLn8WT+JemuHv5nZ4jKm8kRBWKouZELRF8fQ0Cq1bC195ezHkvvBL4AGubXRM3mfD8W3MCP29PYX2xL0mUNxIiIUR5k8kg9OzTCL61bmeQQkeYw2a3pSZAf98cx/faEm6kbUlQ5SAhqlAUrCBqBf+O7QisfQO+1tZiTgG+UajVXKFXi+8YWmwCtCKdRVINBRWHhKhC8Zrm+irtiq7K9kbaFV2V7au0O7oq39dpV3RVtq/SruiqbJ8k9g09+4wLVEC28DI7HhXF5pVMFt8y8fm75nbcn8ogsfuvUJQxPvuy9/j1LVq0CEuXLi0uiVLifV0f/ehHccoppyAaje7M2x30nljOm+4Ov9+PhoYGRCKRYs67tLW1IZFIINeLbe+BQAD19fXv2x/30Wp3wckku5+7j+cpdue8EK98XV2dO5/8/B3h521vbzc7+O5bPbtzHvcFHgePh+emI5lMxp2TdBeRY72N9zsIh8M7zxHh5/a+l744B9655TTc1ophNyxB/YpnuWNk7Hysz/twf3scN7Un8ZYi4cqKxYsXY+HChcWl7iMhqjC8r+uoo47ChAkT3meoegMawTlz5uCAAw54n1F+8skn8dJLL+21OOwOitDs2bPd5+m4Pxq7hx9+GGvX2t1wPzBjxgwceuih7vN3ZOXKlfjLX/6CpqamYk7fM3HiRBx99NEYMmRIMafA5s2b8dhjj2E9w5j7GJ6HWbNmuWPp+DujCPJ7ee2113r1hqQrpm9aj+PXrsGgdrsBCgTx/PCRuD3nw6NvrMWOlpb3CKQoPT0VIjXNVSi8O6dBSKVSvZ5Yr3dH2pm+2C/r68qg8Rj66jN2TtwPvY2u7suY31/HwbS7YyFc19V2vZ1297305e/PS2m72Rm8Ywf8mSxeHrofbpwyFQ+MPQCbY3Wuf0hUDxKiCqUv7wRpaLzUmV3l7wu9XV9PKIdj8NjdOaYw9Nex8jdWSo9jSCIOH/K484BJuGnSIVg9aAhS5pmV03clegcJkXgfuzM+fWGcSmnsPLzPVQ7Hsif66xg9QezK8O8qvzfZap7PfeMnYtXgoch2aiIW1YW+3Qqlr41Afxrl/jBq3aFcjoPnnX1lXZ3/XeX3JV3tj3n9cRw520e+nz+v6H8kRBVMXxlNzyB3Vf+u8iudcvpM3jne1TH117H2l9jsLeV4TGLfkBBVMJ6h6O3k3XUzdaZjud5OnemqTH+kznRVpq/TrvBEqKttejuRXQlifx5H5ySqD4VvVxje19VVWC3X8UJlh7Z3wXZ14XrlPDqX5/M8M2fOxPjx49+3/XPPPYdXXnnFRTWRrur38PbTcX/eckcYJsz9jR079j3h23xmieHib731VjFn3+jqeDoybdo0HHzwwe8L3169ejVefPFFNDc3F3PepWOdHl3V7bG7Y+hYD0PZp0+fjoEDB7plj23btuGZZ57Bhg0b3LJXvmO9Hl0dR+f1uyvP83DMMcdg3Lhx7wvf5vfCsPqOz1Z1pKt6vf113i/pbnlOX3/9daxYscKF03tlRXmg54hqBO/r+tSnPoUzzzzzfUazt6Dh6eoip2h1FdK7r3S1P37W/owSowh2FEKP/j4OwnPRVX9Qfx9Lf/8OusODDz6I66+/HuvWrevy2ETp0HNENQaNVDAY7LO0qwu8r/bb1f6YR0PYVfm+SF2JEOnv42DalQD097F0dQykr39/u0u7+p5E5aJvtELhHXF/3qELIURfISESQghRUiREFQqbTHbVbCKEEJWEhEgIIURJkRAJIYQoKRKiCkXBCntHOg20NANN2/PllXbkkUzw+yweqBA1iJ4jqjC8r+vqq6/G/PnzEYvF3LLYPX/5cxa//10Ga9eW5tmXXREM+nDxJUGcNjeA+gb1+XWHZcuWYcmSJXqOqAzRc0Q1hoIV9o54O7BhUx7r1pdXenN9Ds2tfL9P8UCFqEEkREIIIUqKhEgIIURJkRBVKApWEEJUCxIiIYQQJUVCVKEoWEEIUS1IiIQQQpQUCZEQQoiSIiGqUBSsIISoFiREQgghSoqEqEJRsIIQolqQEAkhhCgpEiIhhBAlRUJUoShYQQhRLUiIhBBClBQJUYWiYAUhRLUgIRIVha+tzVJr4ZWrapoUoiqQEImKIvzk42i49huI/e56BN5cB18iDl8qWRCmXHm9fVUI0T0kRBVKrQYrpI6bhdTxsxF6/jk0fv6zGPC5z6DuB99F7LabEHz5JfibdpgwpeBeeSqPSYiKQEIkKop8rA7J0+chcc75yI0aDf+mjc5Liv7+BjR8/ctoNGGK/eJ/EVrxLPwb3oGvpbkgTDm+i1vCJEQ5IiGqUGo6WME+d2rWHLR/9EpkDj4ECAQK2dkM/Nu3IfLAfWj45n+h8UtfQMN/fxWxX/4U9a8+h4ZME6K+FEK+DALIwSdhEqIskBCJyoFNbewHcs1uOWSmHITE/HOQmTQFCAaLhYxiOf+O7QiuXoXIsntxyiP/F9/PfQ7/NfQ6XNywDEdHX8HI4FbU+RJ2EahvSYhSIiESfYAJAcXAEw5PPDKZQmJgwc6Uck1nLiWThZRIFIIQ4kzt8LVbamlBYNNGE5bXEHruGYQfXo7oHUsRfPkF5CNh5GIx5yl1iR2HL5fFUH8T5tU9ic8P/hV+tN838dsR/4mvDvkJDgqtKxYUQpQCX74bPd6LFi3C0qVLi0uilHhf19VXX4358+cjRgPcW+zup8B1bj2nhWX78byb763LWb6JCygmTlRMTGweJir+9jYnKkjaOvbbFIXJZ4LkIt+snJ/iQ+GhALEO5rs+HhMzCo2/eO/E3bHfx+2X8BiKs7vBjg6pfAht+RieShyM5fEj8GhiGjZlBxdL9C8hc+Q+flUI55wbxICBei6sOyxbtgxLlizBunXrard5ukxZvHgxFi5cWFzqPhKiCmOPQuR9nZ4wuAmnNMEdlkm+6K1Y8mW9eTPubrkwdWUytkxhaG211OICAPwtTfDvYNoOHyPVzGNxAmIilKdYsN+GRoLClDXB2VUUmzMkltyE00LKe/MeO9dZ3VZ/YR+WQiHzduwYuW8KHue7IOsLIp4LY2t2AB6KH44bWs7A65lRxbWlQ0K090iIyhcJUQXS8RLa0zyn7ppz31Yen/zE32Le3LmIRiM783xm9OltgKLBBz/NA/G3FQTEz+gxigi9kriVSZunQfGhQFEkXPNYsWnMkms2o7dCEfF+Ip434rFLYbFVO4XDUiCIfLAoTLYJhcNtaVY4H4m6SDjU1yPf0IBc4wA3zdfVWbK8aMzWm9ia4FDc8kzsD7LlPPPszETuvweRhx80QWxire/C47Wy3McrkWn4zdsz8eCWydiWbUSuTFqlJUR7j4SofJEQlQG8JN6X7E9hnv/ezQ/Yn7BNQ1aA5jRsUy5HLD9SnGf3O9eb1KDe70ODrWuw5QE2PWzcOIwZ0IggPQE2d7EJjOJh6/N+z+hTnExkOnojzPemO5N5GPQuvGXC4pyliND40+gzhcNm2CPOuDsxoCgUvZSC0bd1JhwUklxDox1wY1FULJnguHwKj9XzPmHbSyic4QfuR/SupfBv2PDuZ+RxRKPIjh6DzCGHIjXnRCxfOQo/+VkWq9Z07TGVCgnR3iMhKl8kRCUgbNdAsCgwDCCO2cxAE4yBdnEMtukgN/VjqM0P47KlRsurcxdPHtnimXeiZHkUHFefLbNERzPtmU/v2wqYOPhpyFmQf9yUszbjiYJrHrN5ChI9GyuUNwHImacBeh0DBiA3aDDyAweZJ2JeQr2JRqPlUzzqGwrCY8e807uhwLFuy3Pi5fbvrbP5/sTENfzMU4jc9EcE33jdZeVNNFEXQ5ric/qZyEyc5ISRx/bIA1n85KdpCVEVICEqXyRE/Qw9lytjEcyPBp3ohGjkLT9np5NPqPDyoL2mQBGu25nsj/koyNiSZxZZnonLKVuftEIJm7bbtM0loM3Kx3N5WwccPmMGJh50EIJ251/wUpgKzViuOcvynRFm05ebmqfivBfupcKx88GRFaJ//B0Cr692nzE74QCkD5uOzJFHI7v/mGKz3btIiKoHCVH5IiHqZxpNZT5dH8FJYfNh7AxmLKVsJm1TmjpeHvR0KExxy2uxzCab32ZpSzaHrTZttrwd+Rx2mLhwXYuVS9vUJrvE+7r6JGquErDP79+2DbFf/RTBVSuROXAiUnPPQubgqc7b2xUSoupBQlS+9FSI+rk9pXpoMfH4n7Ykrm5qx6ea2/EJph1xfMKWP7ajHZdb+sC2Nly4vR0fsvlP2vp/bYnjG60J/DSews2JNJal0ngmncUaCpPVl9qDCHWEF2AtXoQMwgg//CAyBx2C1n/7Itr/4TNITz9ityIkhChvSiJEbDSJmRFlX0nHxPxKMq0Uj5WZnEtrTUzW53LYYnnNJihxS+yV6a6wiO7BiLrEeRciOf9sZMeOkwAJUQWURIjOiYbw/QEx/HxQHX5WTL+wdK7lMypMCCFE7VASIRri9yFpvsLjqQzuSKSxPJl2+YwwC9qUnlF90UviMqWpENaMnd6TFwTAdYxeY3l6WcxnXld1MI9l+aG5zPq4jstRm2d5TrnMspxnfe6YivncntuV5MR1gH1F3ejeE0KIsqdk9vS1TM71k/wqnsJvbbqOD1caFI7zo2H8aGAM11k6PRLEfiZcn4pF8O/1UfzAPCmuO9nyo1Z2uInXx23drwfVu3XHhwtRbBdaHT+xckwLzNNi2PTZNv1kXQQHBv2uzn+qj7j6pwYDWNQQxQ2D6/DVhphbnm9lv2Tzx4YCOCsSwqVW30GWz339ix3HRKtDCCHEvlN21vRUE4YTwgE8ksriFRMrisAhJgADTDgmmfF/OJ3BC5ksPhQL43gTiQ/GQi7/j4kUNuRyONWE6GN1YcyJBPCg1fGopQVWx3QrO8DEiAJEz4dpqIlYg6XZtk1TLo8b4mnsFygsv2j7YETbeSZIM+14Rtp2H7D5g2xfT9gxeMJZKmo1WEEIUX2UnRDRGwmagaW3027iQPFgIg+bqCw17+mmRAbNtm6KicI4E44HUxn8wYToK61JfK89iTr48Jd01onTdbb8ponGcBMSNrWNNeGhuFxqQjaWowkY96fSeNVEj+LErm82v7H+n7anbMlnghfEXBOzE02gHrB9PWqJz/KIyoHP9QZDcM/olluyn6TdVBQPVIgapCTPEX3cPBYGJdxkovKGiQSb0j7fEHVicKCJA/tlGNbcWjy017JZXBwNY7MtcxuOWPApq+OvVv5gekkmDHcnM8gi7/p+/qk+io3mHd1qZVtsm8/aMj2cEbaf6SZ0f0nnELeybJZ73LybgwMB1wdE8TrZxOZZm94QT7m+rE/VRTDRjomSxJETfmteE+vdYfWWQou8r+uaa65xzxFF+UCr2CNr1+Tw9JNZbNlSXncQvBc65tgADjk0wOdyRTfQc0TlS0U90Lo7IWLY89GhAF4y4aDXMdJuFx82j4UeyRQTkQdsfphtO9HmrzexONzKTrCrmeLBJjw+EMrw6fGWxzr8Jk3TrMyvrewUyzvAhOt3Nt9kdf9DfQTv2P4nW/5b5gG9ZfPzbT9senvIxO0SE7+M1ZWwY6Yo8kRRyO5OpnGnCZ8nlP2J93XV7AOtouaREJUvFfVAK8Wm3ewph7khpgFuKJuEpXvNwD9nonKGCQL7gejZvM0CBqXgTMs/KhR0TXH0Zn5jokIxYVPbxIAPD1keHxild3O6lT3DvJ5lJhwv2jLrb7O6+HxPlsdg86+b+LEvaZoJzAXRkJ0QjniQx2m2XYOdnVuL23K7u3hsJm4MiGDAgxBCiH2nbIf4YfMcD4whAYx4+0fzXlaZaNAbYXMb8zseeMfyHpQK5u3xAxoM0SYUx+6ULxXyiEStI4+ofKnqseb4WoR55qFszOaxwjwSeja1ivd1feITn8C8efPURyRqjuXLl+OGG27Am2++KSEqMzToaY3gfV2jR4/GsGHDEAqFdDGKmiGbzWLbtm3YsGEDknyJo377ZYWEqEbg18XEC5DvJAoGg7oYRU3A330ul3NixCnRb7+8kBDVCB2/Ll6EXhKiFvDEiOh3X35IiGoI7yvjVBejqFX02y8/eipEikGuQLwLUBeiqFX0268uJEQVCi9EJaVaTaK6kBAJIYQoKRIiIYQQJUVCJIQQoqRIiIQQQpQUCZEQQoiSIiESQghRUiREQgghSoqESAghREmREAkhhCgpEiIhhBAlRUIkhBCipEiIhBBClBQJkRBCiJIiIRJCCFFSJERCCCFKioRICCFESZEQCSGEKCkSIiGEECVFQiSEEKKkSIiEEEKUFAmREEKIkiIhEkIIUVIkREIIIUqKhEgIIURJkRAJIYQoKRIiIYQQJUVCJIQQoqRIiIQQQpQUCZEQQoiSIiESQghRUiREQgghSoqESAghREmREAkhhCgpEiIhhBAlRUIkhBCipEiIhBBClBQJkRBCiJIiIRJCCFFSJERCCCFKioRICCFESZEQCSGEKCkSIiGEECVFQiSEEKKk+PJGcX6XLFq0CMuXLy8uCSGEEO/ni1/8IhYuXFhc6j7dEiIhhBCir1DTnBBCiJIiIRJCCFFSJERCCCFKioRICCFESZEQCSGEKCkSIiGEECVFQiSEEKKkSIiEEEKUFAmREEKIkiIhEkIIUVIkREIIIUqKhEgIIURJkRAJIYQoIcD/B3onaCWal8rOAAAAAElFTkSuQmCC;" parent="WIyWlLk6GJQsqaUBKTNV-1" vertex="1">
          <mxGeometry x="710" y="360" width="418" height="463" as="geometry" />
        </mxCell>
        <mxCell id="WAjhvtBQw4Da81u5yRxe-4" value="&lt;font style=&quot;font-size: 18px;&quot;&gt;Settings&lt;/font&gt;" style="text;html=1;strokeColor=none;fillColor=none;align=center;verticalAlign=middle;whiteSpace=wrap;rounded=0;" parent="WIyWlLk6GJQsqaUBKTNV-1" vertex="1">
          <mxGeometry x="220" y="90" width="280" height="30" as="geometry" />
        </mxCell>
        <mxCell id="WAjhvtBQw4Da81u5yRxe-5" value="Player Settings" style="swimlane;fontStyle=2;align=center;verticalAlign=top;childLayout=stackLayout;horizontal=1;startSize=26;horizontalStack=0;resizeParent=1;resizeLast=0;collapsible=1;marginBottom=0;rounded=0;shadow=0;strokeWidth=1;" parent="WIyWlLk6GJQsqaUBKTNV-1" vertex="1">
          <mxGeometry x="210" y="250" width="210" height="140" as="geometry">
            <mxRectangle x="220" y="120" width="160" height="26" as="alternateBounds" />
          </mxGeometry>
        </mxCell>
        <mxCell id="WAjhvtBQw4Da81u5yRxe-6" value="BlastRadius" style="text;align=left;verticalAlign=top;spacingLeft=4;spacingRight=4;overflow=hidden;rotatable=0;points=[[0,0.5],[1,0.5]];portConstraint=eastwest;" parent="WAjhvtBQw4Da81u5yRxe-5" vertex="1">
          <mxGeometry y="26" width="210" height="26" as="geometry" />
        </mxCell>
        <mxCell id="WAjhvtBQw4Da81u5yRxe-7" value="RateOfFire" style="text;align=left;verticalAlign=top;spacingLeft=4;spacingRight=4;overflow=hidden;rotatable=0;points=[[0,0.5],[1,0.5]];portConstraint=eastwest;rounded=0;shadow=0;html=0;" parent="WAjhvtBQw4Da81u5yRxe-5" vertex="1">
          <mxGeometry y="52" width="210" height="26" as="geometry" />
        </mxCell>
        <mxCell id="WAjhvtBQw4Da81u5yRxe-8" value="Damage" style="text;align=left;verticalAlign=top;spacingLeft=4;spacingRight=4;overflow=hidden;rotatable=0;points=[[0,0.5],[1,0.5]];portConstraint=eastwest;rounded=0;shadow=0;html=0;" parent="WAjhvtBQw4Da81u5yRxe-5" vertex="1">
          <mxGeometry y="78" width="210" height="26" as="geometry" />
        </mxCell>
        <mxCell id="WAjhvtBQw4Da81u5yRxe-9" value="ProjectileSpeed" style="text;strokeColor=none;fillColor=none;align=left;verticalAlign=middle;spacingLeft=4;spacingRight=4;overflow=hidden;points=[[0,0.5],[1,0.5]];portConstraint=eastwest;rotatable=0;whiteSpace=wrap;html=1;" parent="WAjhvtBQw4Da81u5yRxe-5" vertex="1">
          <mxGeometry y="104" width="210" height="30" as="geometry" />
        </mxCell>
        <mxCell id="WAjhvtBQw4Da81u5yRxe-10" value="Enemy Settings" style="swimlane;fontStyle=2;align=center;verticalAlign=top;childLayout=stackLayout;horizontal=1;startSize=26;horizontalStack=0;resizeParent=1;resizeLast=0;collapsible=1;marginBottom=0;rounded=0;shadow=0;strokeWidth=1;" parent="WIyWlLk6GJQsqaUBKTNV-1" vertex="1">
          <mxGeometry x="440" y="250" width="210" height="140" as="geometry">
            <mxRectangle x="220" y="120" width="160" height="26" as="alternateBounds" />
          </mxGeometry>
        </mxCell>
        <mxCell id="WAjhvtBQw4Da81u5yRxe-11" value="bool OverrideGlobalSettings " style="text;align=left;verticalAlign=top;spacingLeft=4;spacingRight=4;overflow=hidden;rotatable=0;points=[[0,0.5],[1,0.5]];portConstraint=eastwest;" parent="WAjhvtBQw4Da81u5yRxe-10" vertex="1">
          <mxGeometry y="26" width="210" height="26" as="geometry" />
        </mxCell>
        <mxCell id="WAjhvtBQw4Da81u5yRxe-17" value="Если false, то ищем по всему проекту настройки и подставляем значения оттуда. Если True, тогда настройки заполняются кастомно" style="text;html=1;strokeColor=none;fillColor=none;align=center;verticalAlign=middle;whiteSpace=wrap;rounded=0;" parent="WIyWlLk6GJQsqaUBKTNV-1" vertex="1">
          <mxGeometry x="580" y="10" width="380" height="70" as="geometry" />
        </mxCell>
        <mxCell id="WAjhvtBQw4Da81u5yRxe-16" value="" style="curved=1;endArrow=classic;html=1;rounded=0;" parent="WIyWlLk6GJQsqaUBKTNV-1" source="WAjhvtBQw4Da81u5yRxe-11" target="WAjhvtBQw4Da81u5yRxe-17" edge="1">
          <mxGeometry width="50" height="50" relative="1" as="geometry">
            <mxPoint x="580" y="180" as="sourcePoint" />
            <mxPoint x="710" y="70" as="targetPoint" />
            <Array as="points">
              <mxPoint x="770" y="180" />
              <mxPoint x="750" y="130" />
            </Array>
          </mxGeometry>
        </mxCell>
        <mxCell id="WAjhvtBQw4Da81u5yRxe-24" value="Base Entity Settings" style="swimlane;fontStyle=2;align=center;verticalAlign=top;childLayout=stackLayout;horizontal=1;startSize=26;horizontalStack=0;resizeParent=1;resizeLast=0;collapsible=1;marginBottom=0;rounded=0;shadow=0;strokeWidth=1;" parent="WIyWlLk6GJQsqaUBKTNV-1" vertex="1">
          <mxGeometry x="320" y="120" width="210" height="60" as="geometry">
            <mxRectangle x="220" y="120" width="160" height="26" as="alternateBounds" />
          </mxGeometry>
        </mxCell>
        <mxCell id="WAjhvtBQw4Da81u5yRxe-25" value="PrefabToSpawn" style="text;align=left;verticalAlign=top;spacingLeft=4;spacingRight=4;overflow=hidden;rotatable=0;points=[[0,0.5],[1,0.5]];portConstraint=eastwest;" parent="WAjhvtBQw4Da81u5yRxe-24" vertex="1">
          <mxGeometry y="26" width="210" height="26" as="geometry" />
        </mxCell>
        <mxCell id="WAjhvtBQw4Da81u5yRxe-29" value="" style="endArrow=classic;html=1;rounded=0;entryX=0.5;entryY=1;entryDx=0;entryDy=0;exitX=0.5;exitY=0;exitDx=0;exitDy=0;" parent="WIyWlLk6GJQsqaUBKTNV-1" source="WAjhvtBQw4Da81u5yRxe-5" target="WAjhvtBQw4Da81u5yRxe-24" edge="1">
          <mxGeometry width="50" height="50" relative="1" as="geometry">
            <mxPoint x="310" y="260" as="sourcePoint" />
            <mxPoint x="360" y="210" as="targetPoint" />
          </mxGeometry>
        </mxCell>
        <mxCell id="WAjhvtBQw4Da81u5yRxe-30" value="" style="endArrow=classic;html=1;rounded=0;entryX=0.519;entryY=1.134;entryDx=0;entryDy=0;exitX=0.5;exitY=0;exitDx=0;exitDy=0;entryPerimeter=0;" parent="WIyWlLk6GJQsqaUBKTNV-1" source="WAjhvtBQw4Da81u5yRxe-10" target="WAjhvtBQw4Da81u5yRxe-25" edge="1">
          <mxGeometry width="50" height="50" relative="1" as="geometry">
            <mxPoint x="325" y="260" as="sourcePoint" />
            <mxPoint x="435" y="190" as="targetPoint" />
          </mxGeometry>
        </mxCell>
      </root>
    </mxGraphModel>
  </diagram>
</mxfile>
